# xmcd
#
# Track frame offsets:
#	150
#	12672
#	25826
#	51623
#	64087
#	75280
#	84535
#	96427
#	105143
#	115902
#	129011
#	140968
#
# Disc length: 1996 seconds
#
# Revision: 0
# Processed by: cddbd v1.5.1PL0 Copyright (c) Steve Scherf et al.
# Submitted via: dBpowerAMP V4.0
#
DISCID=9a07ca0c
DTITLE=Merle Haggard - Sing Me Back Home
DYEAR=1900
DGENRE=Country
TTITLE0=Sing Me Back Home
TTITLE1=Look Over Me
TTITLE2=The Son Of Hickory Holler's Tramp
TTITLE3=Wine Take Me Away
TTITLE4=If You See My Baby
TTITLE5=Where Does The Good Times Go
TTITLE6=I'll Leave The Bottle On The Bar
TTITLE7=My Past Is Present
TTITLE8=Home Is Where A Kid Grows Up
TTITLE9=Mom And Dad's Waltz
TTITLE10=Good Times
TTITLE11=Seeing Eye Dog
EXTD=
EXTT0=
EXTT1=
EXTT2=
EXTT3=
EXTT4=
EXTT5=
EXTT6=
EXTT7=
EXTT8=
EXTT9=
EXTT10=
EXTT11=
PLAYORDER=
